<svg xmlns="http://www.w3.org/2000/svg" width="169" height="288" fill="none" style=""><rect id="backgroundrect" width="100%" height="100%" x="0" y="0" fill="none" stroke="none" class="" style=""/>

<g class="currentLayer" style=""><title>Layer 1</title><g id="Logo" class="">
<path id="Rectangle 4" fill-rule="evenodd" clip-rule="evenodd" d="M-1.018495557336685e-8,0 H169.07906468981506 V191 H-1.018495557336685e-8 V0 z" fill="#4AF6CD"/>
<path id="surf" d="M60.52196468981504,155.36 C60.52196468981504,152.2 60.981964689815044,149.42 61.901964689815046,147.02 C62.82196468981505,144.58 64.20196468981504,142.4 66.04196468981505,140.48 L71.92196468981504,145.46 C69.64196468981504,148.34 68.50196468981504,151.36 68.50196468981504,154.52 C68.50196468981504,156.16 68.82196468981505,157.42 69.46196468981505,158.3 C70.06196468981504,159.14 70.92196468981504,159.56 72.04196468981505,159.56 C72.84196468981504,159.56 73.50196468981504,159.34 74.02196468981505,158.9 C74.54196468981505,158.46 75.04196468981505,157.72 75.52196468981505,156.68 C76.00196468981504,155.64 76.60196468981505,154 77.32196468981505,151.76 C78.68196468981505,147.48 80.40196468981505,144.36 82.48196468981504,142.4 C84.52196468981505,140.4 87.36196468981504,139.4 91.00196468981504,139.4 C93.64196468981504,139.4 95.98196468981504,140.08 98.02196468981505,141.44 C100.02206468981504,142.8 101.58206468981504,144.78 102.70206468981505,147.38 C103.82206468981505,149.94 104.38206468981504,152.96 104.38206468981504,156.44 C104.38206468981504,163.08 102.36206468981504,168.5 98.32196468981505,172.7 L92.26196468981504,167.24 C94.98196468981504,163.92 96.34196468981504,160.46 96.34196468981504,156.86 C96.34196468981504,154.98 95.94196468981504,153.52 95.14196468981504,152.48 C94.30196468981505,151.44 93.20196468981504,150.92 91.84196468981504,150.92 C90.88196468981505,150.92 90.10196468981505,151.12 89.50196468981504,151.52 C88.86196468981504,151.92 88.30196468981505,152.64 87.82196468981505,153.68 C87.30196468981505,154.68 86.74196468981505,156.16 86.14196468981504,158.12 C84.66196468981505,162.84 82.88196468981505,166.16 80.80196468981505,168.08 C78.72196468981504,170 76.10196468981505,170.96 72.94196468981504,170.96 C70.46196468981505,170.96 68.28196468981504,170.3 66.40196468981505,168.98 C64.52196468981505,167.62 63.081964689815045,165.76 62.081964689815045,163.4 C61.041964689815046,161 60.52196468981504,158.32 60.52196468981504,155.36 zM89.32196468981505,101.9553 C92.20196468981504,101.9553 94.78196468981504,102.5953 97.06196468981504,103.8753 C99.34196468981504,105.1153 101.14206468981504,106.9953 102.46206468981505,109.5153 C103.74206468981504,112.035 104.38206468981504,115.115 104.38206468981504,118.755 C104.38206468981504,124.275 103.04206468981505,128.45499999999998 100.36206468981504,131.29500000000002 C97.64196468981504,134.135 93.96196468981505,135.555 89.32196468981505,135.555 H61.60196468981504 V124.455 H88.96196468981505 C91.48196468981504,124.455 93.34196468981504,124.015 94.54196468981505,123.135 C95.70196468981504,122.215 96.28196468981504,120.755 96.28196468981504,118.755 C96.28196468981504,116.755 95.68196468981505,115.315 94.48196468981504,114.435 C93.28196468981504,113.555 91.44196468981504,113.115 88.96196468981505,113.115 H61.60196468981504 V101.9553 H89.32196468981505 zM87.94196468981504,81.9477 V85.0077 H103.30206468981504 V96.1077 H61.60196468981504 V81.6477 C61.60196468981504,75.7677 62.66196468981504,71.3877 64.78196468981504,68.5077 C66.90196468981505,65.5877 70.16196468981505,64.1277 74.56196468981504,64.1277 C77.20196468981504,64.1277 79.40196468981505,64.74770000000001 81.16196468981505,65.98769999999999 C82.92196468981504,67.1877 84.50196468981504,69.1277 85.90196468981505,71.8077 L103.30206468981504,61.4277 V73.7877 L87.94196468981504,81.9477 zM80.38196468981505,85.0077 V81.2877 C80.38196468981505,77.4477 78.44196468981504,75.5277 74.56196468981504,75.5277 C72.76196468981504,75.5277 71.44196468981504,76.0677 70.60196468981505,77.1477 C69.76196468981504,78.1877 69.34196468981504,79.7677 69.34196468981504,81.8877 V85.0077 H80.38196468981505 zM103.30206468981504,58.9006 H61.60196468981504 V33.2806 L69.46196468981505,34.4206 V47.8006 H79.48196468981504 V36.0406 H87.34196468981504 V47.8006 H103.30206468981504 V58.9006 z" fill="white"/>
<path id="Go" d="M60.52196468981504,267.92 C60.52196468981504,262.36 62.28196468981504,257.58000000000004 65.80196468981505,253.58 L71.50196468981504,259.03999999999996 C70.42196468981504,260.56 69.64196468981504,261.94 69.16196468981505,263.18 C68.64196468981504,264.38 68.38196468981505,265.76 68.38196468981505,267.32 C68.38196468981505,270.32 69.54196468981505,272.68 71.86196468981504,274.4 C74.18196468981505,276.08 77.72196468981504,276.92 82.48196468981504,276.92 C85.96196468981505,276.92 88.72196468981504,276.64 90.76196468981504,276.08 C92.76196468981504,275.52 94.20196468981504,274.68 95.08196468981504,273.56 C95.96196468981505,272.4 96.40196468981505,270.92 96.40196468981505,269.12 C96.40196468981505,267.32 96.02196468981505,265.68 95.26196468981504,264.2 H86.68196468981505 V268.94 L79.06196468981504,270.02 V253.46 H99.82196468981505 C101.26206468981505,255.62 102.38206468981504,258.06 103.18206468981505,260.78 C103.98206468981505,263.5 104.38206468981504,266.18 104.38206468981504,268.82 C104.38206468981504,281.86 97.06196468981504,288.38 82.42196468981504,288.38 C77.86196468981504,288.38 73.94196468981504,287.5 70.66196468981505,285.74 C67.34196468981504,283.94 64.82196468981505,281.5 63.10196468981504,278.42 C61.38196468981504,275.34 60.52196468981504,271.84 60.52196468981504,267.92 zM60.52196468981504,230.335 C60.52196468981504,224.295 62.441964689815045,219.595 66.28196468981504,216.235 C70.12196468981504,212.875 75.50196468981504,211.195 82.42196468981504,211.195 C86.94196468981504,211.195 90.86196468981504,211.955 94.18196468981505,213.475 C97.46196468981505,214.955 99.98206468981505,217.135 101.74206468981504,220.015 C103.50206468981504,222.895 104.38206468981504,226.335 104.38206468981504,230.335 C104.38206468981504,236.375 102.46206468981505,241.075 98.62196468981504,244.435 C94.78196468981504,247.755 89.38196468981505,249.415 82.42196468981504,249.415 C77.90196468981505,249.415 74.00196468981504,248.675 70.72196468981504,247.195 C67.44196468981504,245.675 64.92196468981504,243.495 63.16196468981504,240.655 C61.401964689815046,237.775 60.52196468981504,234.335 60.52196468981504,230.335 zM68.50196468981504,230.335 C68.50196468981504,232.935 69.58196468981504,234.855 71.74196468981505,236.095 C73.90196468981505,237.295 77.46196468981505,237.895 82.42196468981504,237.895 C87.38196468981505,237.895 90.96196468981505,237.275 93.16196468981505,236.035 C95.32196468981505,234.795 96.40196468981505,232.895 96.40196468981505,230.335 C96.40196468981505,227.695 95.32196468981505,225.775 93.16196468981505,224.575 C91.00196468981504,223.375 87.42196468981504,222.775 82.42196468981504,222.775 C77.46196468981505,222.775 73.90196468981505,223.375 71.74196468981505,224.575 C69.58196468981504,225.775 68.50196468981504,227.695 68.50196468981504,230.335 z" fill="white"/>
<rect id="Rectangle 2" x="83.53316497057676" y="201" width="20" height="1.0064200162887573" transform="rotate(-90 83.53316497802736,201) " fill="white"/>
</g></g></svg>